<svg id="_x33_0" enable-background="new 0 0 64 64" height="512" viewBox="0 0 64 64" width="512" xmlns="http://www.w3.org/2000/svg"><path d="m57 59v3h-35v-3l3-3h29z" fill="#969faa"/><path d="m18 56h7c-1.17 1.17-1.83 1.83-3 3v3h-17v-3l3-3h6z" fill="#838f9b"/><path d="m16 44c-1.1 0-2 .9-2 2 0-3.69 0-7.76 0-11 0-8 1-19 8-22v5c-3.53 2.35-4 11-4 19v7z" fill="#aab2bd"/><path d="m16 50h2v6h-4s0-3.51 0-8c0 1.1.9 2 2 2z" fill="#aab2bd"/><path d="m14 48v8h-6v-12h1c1.1 0 2-1.79 2-4s-.9-4-2-4h-1c0-12 3-25 14-28v5c-7 3-8 14-8 22v11z" fill="#969faa"/><path d="m9 36h-1-4c1.1 0 2 1.79 2 4s-.9 4-2 4h4 1c1.1 0 2-1.79 2-4s-.9-4-2-4z" fill="#fc6e51"/><ellipse cx="4" cy="40" fill="#ff826e" rx="2" ry="4"/><path d="m52 46v2c0 1.1-.9 2-2 2h-25v-6h25c1.1 0 2 .9 2 2z" fill="#ffeaa7"/><path d="m25 44v6h-7-2c-1.1 0-2-.9-2-2 0-.65 0-1.32 0-2 0-1.1.9-2 2-2h2z" fill="#fcd770"/><path d="m31 29 1.41 4 1.41 4h10.36l1.41-4 1.41-4z" fill="#aab2bd"/><path d="m26 2v27h-4v-11-5-5-6z" fill="#ccd1d9"/><path d="m47 29h-16-5v-27h26v27z" fill="#e6e9ed"/><path d="m48 6v15h-18v-15z" fill="#69d6f4"/><path d="m37.31 13.5c.42.36.69.9.69 1.5 0 .08 0 .15-.01.22-.11 1-.97 1.78-1.99 1.78-1.1 0-2-.9-2-2 0-.6.27-1.14.69-1.5.35-.32.81-.5 1.31-.5.37 0 .72.1 1.02.28.1.06.2.13.29.22z" fill="#b4dd7f"/><path d="m37.9 10.86c.54-.53 1.28-.86 2.1-.86 1.66 0 3 1.34 3 3s-1.34 3-3 3c-.78 0-1.48-.3-2.01-.78.01-.07.01-.14.01-.22 0-.6-.27-1.14-.69-1.5-.09-.09-.19-.16-.29-.22-.3-.18-.65-.28-1.02-.28-.5 0-.96.18-1.31.5-.42-.36-.69-.9-.69-1.5 0-1.1.9-2 2-2 .92 0 1.54.33 1.9.86z" fill="#b4dd7f"/><path d="m40 9c-.729 0-1.421.217-2.026.577-.538-.363-1.198-.577-1.974-.577-1.654 0-3 1.346-3 3 0 .537.159 1.048.425 1.5-.266.452-.425.963-.425 1.5 0 1.654 1.346 3 3 3 1.028 0 1.934-.523 2.476-1.313.48.2.995.313 1.524.313 2.206 0 4-1.794 4-4s-1.794-4-4-4zm-4 2c.208 0 .377.023.516.059-.17.302-.294.625-.38.963-.375-.014-.748.043-1.098.157-.011-.061-.038-.117-.038-.179 0-.551.449-1 1-1zm.996 4.11c-.055.499-.493.89-.996.89-.551 0-1-.449-1-1 0-.285.124-.555.364-.762.171-.155.391-.238.636-.238.181 0 .356.048.505.137.046.027.079.052.154.122.217.186.341.456.341.741zm3.004-.11c-.434 0-.773-.136-1.032-.297-.076-.754-.416-1.452-.95-1.908.043-.41.204-.796.491-1.114.371-.433.914-.681 1.491-.681 1.103 0 2 .897 2 2s-.897 2-2 2z"/><circle cx="39" cy="25" r="1"/><circle cx="45" cy="25" r="1"/><circle cx="33" cy="25" r="1"/><path d="m49 22v-17h-20v17zm-18-15h16v13h-16z"/><path d="m54.415 55h-35.415v-4h31c1.654 0 3-1.346 3-3v-2c0-1.654-1.346-3-3-3h-31v-6c0-3.899.005-12.102 2-16.19v9.19h9.293l2.824 8h11.768l2.824-8h5.291v-29h-32v6.265c-11.721 3.77-13.855 18.499-13.992 27.735h-3.008c-1.71 0-3 2.149-3 5s1.29 5 3 5h3v10.586l-3 3v4.414h54v-4.414zm-37.415 0h-2v-4.184c.314.112.648.184 1 .184h1zm-2-9c0-.552.449-1 1-1h8v4h-8c-.551 0-1-.448-1-1zm36 0v2c0 .552-.449 1-1 1h-24v-4h24c.551 0 1 .448 1 1zm-34-9v6h-1c-.352 0-.686.072-1 .184v-8.184c0-10.861 1.971-17.521 6-20.295v2.819c-3.495 2.944-4 11.066-4 19.476zm17.531-1-.706-2h10.349l-.706 2zm10.35-4h-11.762l-.706-2h13.173zm6.119-4h-24v-25h24zm-28-25h2v25h-2zm-16.057 38h2.978c-.195 1.292-.719 2-.921 2h-2.579c.253-.578.438-1.25.522-2zm0-2c-.084-.75-.269-1.422-.522-2h2.579c.202 0 .726.708.921 2zm-3.943 1c0-1.936.751-3 1-3s1 1.064 1 3-.751 3-1 3-1-1.064-1-3zm9 0c0-2.846-1.285-4.991-2.992-4.999.129-8.506 1.992-21.896 11.992-25.623v3.005c-5.376 2.741-8 10.143-8 22.617v20h-4v-10c1.71 0 3-2.149 3-5zm-6 19.414 2.414-2.414h14.172l-1.586 1.586v2.414h-15zm50 1.586h-33v-1.586l2.414-2.414h28.172l2.414 2.414z"/></svg>